<?xml version="1.0"?>
<svg id="edb1cb0b-fe21-41b0-8267-042caefa8d19" data-name="Layer 1" xmlns="http://www.w3.org/2000/svg" xmlns:xlink="http://www.w3.org/1999/xlink" viewBox="0 0 792 576" width="792" height="576"><defs><style>.a412e5b8-48bc-401e-a644-d75f95758aaa{fill:#5b7b82;}.f58f688a-d54d-49d9-9c87-cc62a36b0c3d{fill:#1c3664;}.f213a9a0-3641-4c8b-8b54-016c78f40c5d{fill:url(#a310750a-5f69-4f8d-913a-c80aaab14e86);}</style><linearGradient id="a310750a-5f69-4f8d-913a-c80aaab14e86" x1="601.4" y1="293.53" x2="715.53" y2="293.53" gradientTransform="translate(-238.75 -137.7) rotate(3.57)" gradientUnits="userSpaceOnUse"><stop offset="0.1" stop-color="#d44527"></stop><stop offset="0.34" stop-color="#ed693c"></stop><stop offset="0.58" stop-color="#f29040"></stop><stop offset="1" stop-color="#fdc714"></stop></linearGradient></defs><title>ATG-Logo</title><path class="a412e5b8-48bc-401e-a644-d75f95758aaa" d="M164.71,390.72H151.77v35.06h-3.19V390.72H135.67V388h29Z"></path><path class="a412e5b8-48bc-401e-a644-d75f95758aaa" d="M191.65,407.68H174v15.4h20.3v2.7H170.8V388h23.37v2.69H174V405h17.66Z"></path><path class="a412e5b8-48bc-401e-a644-d75f95758aaa" d="M227.74,414q-.65,6-4.26,9.13t-9.64,3.16a13.28,13.28,0,0,1-7.42-2.1,13.64,13.64,0,0,1-5-5.95,21,21,0,0,1-1.79-8.8v-4.91a21.28,21.28,0,0,1,1.76-8.91,13.48,13.48,0,0,1,5.07-6,13.8,13.8,0,0,1,7.61-2.11q6.06,0,9.58,3.27a13.66,13.66,0,0,1,4.08,9h-3.21q-1.2-9.61-10.45-9.62a9.88,9.88,0,0,0-8.18,3.85q-3,3.84-3.05,10.61v4.62q0,6.54,3,10.43a9.57,9.57,0,0,0,8,3.89c3.34,0,5.85-.8,7.55-2.4s2.74-4,3.14-7.19Z"></path><path class="a412e5b8-48bc-401e-a644-d75f95758aaa" d="M263.47,425.78h-3.22v-18.1H238.68v18.1h-3.19V388h3.19v17h21.57V388h3.22Z"></path><path class="a412e5b8-48bc-401e-a644-d75f95758aaa" d="M301.17,425.78H298l-21.7-32.31v32.31h-3.22V388h3.22L298,420.36V388h3.16Z"></path><path class="a412e5b8-48bc-401e-a644-d75f95758aaa" d="M338.66,409a21.81,21.81,0,0,1-1.8,9.15,13.76,13.76,0,0,1-5.15,6.07A14.05,14.05,0,0,1,324,426.3a13.42,13.42,0,0,1-10.69-4.74q-4.07-4.72-4.07-12.76v-3.89a21.65,21.65,0,0,1,1.83-9.14,13.58,13.58,0,0,1,12.87-8.26,14.1,14.1,0,0,1,7.69,2.1,13.81,13.81,0,0,1,5.15,5.94,21.3,21.3,0,0,1,1.89,8.89Zm-3.19-4.1q0-6.81-3.08-10.68a11.1,11.1,0,0,0-16.84,0q-3.14,3.88-3.13,10.83V409q0,6.72,3.11,10.65a10.25,10.25,0,0,0,8.46,3.92,10.13,10.13,0,0,0,8.45-3.87q3-3.88,3-10.8Z"></path><path class="a412e5b8-48bc-401e-a644-d75f95758aaa" d="M349.91,423.08h18.64v2.7H346.7V388h3.21Z"></path><path class="a412e5b8-48bc-401e-a644-d75f95758aaa" d="M400.89,409a21.81,21.81,0,0,1-1.8,9.15,13.82,13.82,0,0,1-5.15,6.07,14.09,14.09,0,0,1-7.73,2.13,13.39,13.39,0,0,1-10.68-4.74q-4.06-4.72-4.07-12.76v-3.89a21.65,21.65,0,0,1,1.83-9.14,13.58,13.58,0,0,1,12.87-8.26,14.12,14.12,0,0,1,7.69,2.1,13.72,13.72,0,0,1,5.14,5.94,21.3,21.3,0,0,1,1.9,8.89Zm-3.19-4.1q0-6.81-3.09-10.68a11.1,11.1,0,0,0-16.84,0q-3.12,3.88-3.12,10.83V409q0,6.72,3.11,10.65a11.11,11.11,0,0,0,16.9,0q3-3.88,3-10.8Z"></path><path class="a412e5b8-48bc-401e-a644-d75f95758aaa" d="M436.17,421.29A10.63,10.63,0,0,1,431,425a22.3,22.3,0,0,1-7.92,1.33,14.71,14.71,0,0,1-7.89-2.13,14.15,14.15,0,0,1-5.34-6,20.48,20.48,0,0,1-1.92-8.92v-4.77q0-7.86,4-12.41a13.43,13.43,0,0,1,10.66-4.55,14.14,14.14,0,0,1,9.38,3,12.24,12.24,0,0,1,4.23,8.18H433a9.83,9.83,0,0,0-3.38-6.31,10.91,10.91,0,0,0-7-2.15,10.25,10.25,0,0,0-8.37,3.77q-3.09,3.76-3.09,10.61V409a18.6,18.6,0,0,0,1.47,7.62,11.63,11.63,0,0,0,4.2,5.13,11.18,11.18,0,0,0,6.29,1.81,17.61,17.61,0,0,0,7.07-1.29,7.84,7.84,0,0,0,2.86-2v-9.75H422.85v-2.7h13.32Z"></path><path class="a412e5b8-48bc-401e-a644-d75f95758aaa" d="M456.29,408.62,467.83,388h3.68l-13.63,23.54v14.21h-3.19V411.57L441.07,388h3.79Z"></path><path class="a412e5b8-48bc-401e-a644-d75f95758aaa" d="M517.17,421.29A10.66,10.66,0,0,1,512,425a22.26,22.26,0,0,1-7.92,1.33,14.7,14.7,0,0,1-7.88-2.13,14.15,14.15,0,0,1-5.34-6,20.48,20.48,0,0,1-1.92-8.92v-4.77q0-7.86,4-12.41a13.43,13.43,0,0,1,10.66-4.55,14.16,14.16,0,0,1,9.38,3,12.24,12.24,0,0,1,4.23,8.18H514a9.8,9.8,0,0,0-3.39-6.31,10.86,10.86,0,0,0-7-2.15,10.24,10.24,0,0,0-8.37,3.77q-3.09,3.76-3.09,10.61V409a18.76,18.76,0,0,0,1.46,7.62,11.71,11.71,0,0,0,4.21,5.13,11.15,11.15,0,0,0,6.28,1.81,17.63,17.63,0,0,0,7.08-1.29,7.71,7.71,0,0,0,2.85-2v-9.75H503.85v-2.7h13.32Z"></path><path class="a412e5b8-48bc-401e-a644-d75f95758aaa" d="M540.33,410h-11v15.74h-3.22V388h12.27q6,0,9.44,2.92a11.19,11.19,0,0,1,1.27,14.58,10.89,10.89,0,0,1-5.71,3.84l9.44,16.07v.34h-3.4Zm-11-2.7h9.77a9.09,9.09,0,0,0,6.46-2.28,8.63,8.63,0,0,0-.1-12.13,10.55,10.55,0,0,0-7.13-2.21h-9Z"></path><path class="a412e5b8-48bc-401e-a644-d75f95758aaa" d="M587.83,409A21.81,21.81,0,0,1,586,418.1a13.74,13.74,0,0,1-5.14,6.07,14.09,14.09,0,0,1-7.73,2.13,13.39,13.39,0,0,1-10.68-4.74q-4.07-4.72-4.07-12.76v-3.89a21.65,21.65,0,0,1,1.83-9.14,13.58,13.58,0,0,1,12.87-8.26,14.12,14.12,0,0,1,7.69,2.1,13.79,13.79,0,0,1,5.14,5.94,21.45,21.45,0,0,1,1.9,8.89Zm-3.19-4.1q0-6.81-3.09-10.68a11.1,11.1,0,0,0-16.84,0q-3.12,3.88-3.12,10.83V409q0,6.72,3.11,10.65a11.11,11.11,0,0,0,16.9,0q3-3.88,3-10.8Z"></path><path class="a412e5b8-48bc-401e-a644-d75f95758aaa" d="M621.87,388V413.8a13.17,13.17,0,0,1-1.68,6.64,11.07,11.07,0,0,1-4.69,4.34,15.23,15.23,0,0,1-6.93,1.52q-6,0-9.56-3.26t-3.72-9V388h3.17v25.54c0,3.18.9,5.65,2.72,7.4A11.67,11.67,0,0,0,616,421a9.86,9.86,0,0,0,2.7-7.37V388Z"></path><path class="a412e5b8-48bc-401e-a644-d75f95758aaa" d="M634,410.4v15.38h-3.19V388h12.86c3.93,0,7,1,9.3,3a10.49,10.49,0,0,1,3.41,8.28c0,3.54-1.1,6.28-3.28,8.2s-5.36,2.89-9.51,2.89Zm0-2.69h9.67c3.1,0,5.45-.74,7.08-2.21a7.85,7.85,0,0,0,2.44-6.15,8.24,8.24,0,0,0-2.43-6.25c-1.61-1.55-3.91-2.34-6.88-2.38H634Z"></path><path class="f58f688a-d54d-49d9-9c87-cc62a36b0c3d" d="M172.83,290.55a57.28,57.28,0,0,1,13.95,1.65,43.22,43.22,0,0,1,11.42,4.39,23.49,23.49,0,0,1,7.68,6.48,13.29,13.29,0,0,1,2.75,8v57H194.68V332.5H151v35.57H137.15v-57a12.81,12.81,0,0,1,2.85-7.91,23.22,23.22,0,0,1,7.58-6.59A40,40,0,0,1,159,292.2,55,55,0,0,1,172.83,290.55Zm21.85,20.54a11,11,0,0,0-1.75-6,14.87,14.87,0,0,0-4.62-4.72,23.89,23.89,0,0,0-6.91-3.19,31.67,31.67,0,0,0-8.57-1.21,30.44,30.44,0,0,0-8.45,1.21,25.39,25.39,0,0,0-7,3.19,14.42,14.42,0,0,0-4.61,4.83,11.54,11.54,0,0,0-1.76,5.93v16h43.7Z"></path><path class="f58f688a-d54d-49d9-9c87-cc62a36b0c3d" d="M277.47,329.53a41.19,41.19,0,0,1,6.59,2.64,25.16,25.16,0,0,1,6.26,3.95,18.54,18.54,0,0,1,4.39,4.94,12,12,0,0,1,1.87,6.26v20.53H281.86V347.32A10.56,10.56,0,0,0,280,341.5a14.19,14.19,0,0,0-4.84-4.72,30.42,30.42,0,0,0-7.35-3.29,34.83,34.83,0,0,0-9.12-1.21H235.42v35.57H220.7V291.21h35.69a62,62,0,0,1,14.82,1.65,43.93,43.93,0,0,1,12.08,4.39,25.14,25.14,0,0,1,8,6.48,13.64,13.64,0,0,1,3,8,16.25,16.25,0,0,1-4.06,10.43Q286.15,326.89,277.47,329.53Zm-42.05-2.63h21a34.81,34.81,0,0,0,9.11-1.21,26,26,0,0,0,7.25-3.29,14.92,14.92,0,0,0,4.94-4.84,10.54,10.54,0,0,0,1.87-5.81,10.72,10.72,0,0,0-1.87-5.93,16.92,16.92,0,0,0-4.94-4.73,26.34,26.34,0,0,0-7.25-3.29,34.81,34.81,0,0,0-9.11-1.21h-21Z"></path><path class="f58f688a-d54d-49d9-9c87-cc62a36b0c3d" d="M376.51,291.21v5.38H345.77v71.26H331.05V296.59H300.53v-5.38Z"></path><path class="f58f688a-d54d-49d9-9c87-cc62a36b0c3d" d="M403.19,367.85h-14.6V291.21h14.6Z"></path><path class="f58f688a-d54d-49d9-9c87-cc62a36b0c3d" d="M485.65,304l-12.85,4.17a14.3,14.3,0,0,0-2.3-4.06,20.91,20.91,0,0,0-4.61-3.95,28,28,0,0,0-6.92-3,33.49,33.49,0,0,0-18.23.11,29.39,29.39,0,0,0-7.35,3.19,16.34,16.34,0,0,0-4.83,4.83,10.55,10.55,0,0,0-1.76,5.82q0,4.5,4.61,7.24a47,47,0,0,0,11.31,4.73q5.16,1.53,14.49,3.73a98.65,98.65,0,0,1,14.72,4.39,37.67,37.67,0,0,1,11.41,6.7,13.85,13.85,0,0,1,4.51,10.65,12.19,12.19,0,0,1-3,7.9,28.58,28.58,0,0,1-8.12,6.59,51.78,51.78,0,0,1-12.08,4.39A61.92,61.92,0,0,1,450,369a63.74,63.74,0,0,1-14.72-1.54A45.87,45.87,0,0,1,423.07,363a26.66,26.66,0,0,1-8.24-6.48,13.41,13.41,0,0,1-2.85-8.12H426.8a10.88,10.88,0,0,0,1.86,6,14.66,14.66,0,0,0,5.06,4.83,24.18,24.18,0,0,0,7.35,3.18,31.87,31.87,0,0,0,8.9,1.1,34.56,34.56,0,0,0,9-1.1,26.47,26.47,0,0,0,7.47-3.18,19,19,0,0,0,4.83-4.83,10.71,10.71,0,0,0,1.86-5.93,9.91,9.91,0,0,0-2.52-7.14,20.62,20.62,0,0,0-6.92-4.83,61.9,61.9,0,0,0-9.66-3.4c-.81-.22-2.49-.63-5-1.21s-4.58-1.06-6-1.43q-7.47-1.75-11.09-2.74a46.06,46.06,0,0,1-9.77-3.52,18.68,18.68,0,0,1-6.7-5.38,11.52,11.52,0,0,1-2.64-7.79,12.93,12.93,0,0,1,3-8,23.29,23.29,0,0,1,7.9-6.48,47.72,47.72,0,0,1,11.64-4.39A63.29,63.29,0,0,1,450,290.55a61.74,61.74,0,0,1,14.38,1.54A44.78,44.78,0,0,1,475,295.72a28.23,28.23,0,0,1,6.92,4.39A19.8,19.8,0,0,1,485.65,304Z"></path><path class="f58f688a-d54d-49d9-9c87-cc62a36b0c3d" d="M531.22,290.55a57.19,57.19,0,0,1,13.94,1.65,43.09,43.09,0,0,1,11.42,4.39,23.43,23.43,0,0,1,7.69,6.48,13.27,13.27,0,0,1,2.74,8v57H553.07V332.5h-43.7v35.57H495.53v-57a12.77,12.77,0,0,1,2.86-7.91,23.12,23.12,0,0,1,7.58-6.59,40.09,40.09,0,0,1,11.41-4.39A55.1,55.1,0,0,1,531.22,290.55Zm21.85,20.54a11,11,0,0,0-1.76-6,14.84,14.84,0,0,0-4.61-4.72,23.83,23.83,0,0,0-6.92-3.19,31.6,31.6,0,0,0-8.56-1.21,30.39,30.39,0,0,0-8.45,1.21,25.39,25.39,0,0,0-7,3.19,14.46,14.46,0,0,0-4.62,4.83,11.52,11.52,0,0,0-1.75,5.93v16h43.7Z"></path><path class="f58f688a-d54d-49d9-9c87-cc62a36b0c3d" d="M640.14,367.63V311.2a10.79,10.79,0,0,0-1.87-6,19.67,19.67,0,0,0-4.94-4.61,27,27,0,0,0-7.35-3.19,34.11,34.11,0,0,0-18,0,26.65,26.65,0,0,0-7.47,3.19,15.58,15.58,0,0,0-4.83,4.72,10.64,10.64,0,0,0-1.87,5.93v56.43H579.09V311.2a11.81,11.81,0,0,1,3.08-7.8,24.9,24.9,0,0,1,8-6.59,46.08,46.08,0,0,1,12.08-4.28A62.35,62.35,0,0,1,617,290.88a63.2,63.2,0,0,1,14.71,1.65,49.67,49.67,0,0,1,12.19,4.28,23.91,23.91,0,0,1,8.13,6.48,12.23,12.23,0,0,1,2.85,7.91v56.43Z"></path><path class="f213a9a0-3641-4c8b-8b54-016c78f40c5d" d="M421.72,219.57c3.54-1.64,6.93-3.44,10.24-5.3a3.91,3.91,0,0,1-1-.51,8.53,8.53,0,0,1-1,1.41.33.33,0,0,1-.16.13,17.35,17.35,0,0,1-4,.64.29.29,0,0,0-.25.19c-.19.5-.46,1.5-.88,1.78A21.09,21.09,0,0,0,421.72,219.57Zm-71.93,17.57a32.35,32.35,0,0,1,4.29-4.1s0,3,0,3c1.32-1.61,2.4-3.67,4.34-2.94l.42-.23a11.73,11.73,0,0,1,.54-1.28s.06-1.66.1-1.68c1.24-.59,4.18-4.69,5.29-6.49a1.37,1.37,0,0,1,0,.69c.32-.66,1.07-.82,1.39-1.75a6.63,6.63,0,0,0,.45,1.25c3.06-1.12,6.3-3,8.84-2.81,1,0,1.91,0,2.87,0a8.69,8.69,0,0,1,2.56-.14c.35,0,.67-.7.89-1.11a.29.29,0,0,1,.4-.11,19.88,19.88,0,0,0,3.54,1.79c.22-.25.7-.26,1.16-.78a7.09,7.09,0,0,0,.76,1.08.3.3,0,0,0,.19.1c1.81.21,3.65.41,5.54.58v-.12c3.67-.12,9.57,1.73,12.25-1.63a.29.29,0,0,1,.43,0,5.76,5.76,0,0,0,2.58,1.38h.14a40,40,0,0,0,7.68-2.24c.17-.46-.09-.84-.17-1.18a22,22,0,0,0,3.82-.56l.06,0c1.64-.9,3.3-1.76,5-2.6l.11-.08a10.6,10.6,0,0,0,.94-1.59,1.89,1.89,0,0,0,1.08.61l1.94-.91a51.11,51.11,0,0,0,7.89-5.48c.16-.51.28-.94.41-.92a28,28,0,0,1,2.65-1.63l0,0a77.21,77.21,0,0,0,6.77-6.46c1.53-2.38-5.25-3.37-5.21-5.11.73-6.8,4.82-7,9.05-13.39,1.15-1.5-1-.26-1.42-1a.3.3,0,0,1,0-.21c.31-2.23,1.52-4.34,2.41-6.51a.29.29,0,0,0-.42-.36,158,158,0,0,0-18.38,13.11.29.29,0,0,0,.31.49,26.46,26.46,0,0,1,5.64-2.09c-4.8,3-5.11,3.67-10,6.37l-4.61,2.12c-5.08,3.83-10,8.17-15.24,9.25a7.08,7.08,0,0,1,1.36-1.62,20.06,20.06,0,0,1-5.39,1.82.22.22,0,0,0-.11,0l-1.62,1.17c.2-.27.68-.68,1-1.09-5.78.9-11.63-.39-17.37-1.06.46,0,.69-.43.91-.8q-.46,0-.93,0a18.5,18.5,0,0,1-2.52.28A7.22,7.22,0,0,1,387,200l1-.17c.21-.33.44-.52.86-.16a6.85,6.85,0,0,1,4.07.16c4,2.12,7.79,0,11.21.89.81.13.63.6.23,1.11l.66-.12a16.29,16.29,0,0,1,3.79-2.2,31.48,31.48,0,0,0,4.27-1.34l.8-.46-.39.29c3.43-1.47,7.28-3.88,10.86-5.75l0,0c2.07-1.59,6.06-5.22,5.76-5.7-.92-1.46-6.68,5.14-10.3,6.8a.3.3,0,0,1-.35-.47,46.43,46.43,0,0,1,6.89-6.38c-1.84,1.15-3.69,2.31-5.53,3.5l-.06,0a8.1,8.1,0,0,1-4.12.82,18.55,18.55,0,0,0,5.06-4.28c-3.15,1.68-6.88,4.57-9.6,5.36l-.86.23.84-.23h0a10.39,10.39,0,0,0,2.18-1.15c.87-.63,1.75-1.31,2.64-1.94a15.72,15.72,0,0,1,5.46-2.81c-.35.52-.3,1.32-.68,1.75a153.69,153.69,0,0,0,16.18-11c-3.51-.56-7.17,5.73-11,5.86,5.7-5,11.94-9.12,18.06-13.75,3.09-2.33,6-4.71,9.07-7.47,2.66-2.37,3.64-3.42,5.72-5.48a.33.33,0,0,0-.35-.55,14,14,0,0,0-3,1.29c-1.18.68-2.28,1.32-3.54,2-1.08.59-2.16,1.15-3.27,1.66a10.3,10.3,0,0,0,2.51-2.17c-2.82,2.25-5.52,4.12-8.43,6.51l-.63.21c-6.59,5-13,7.93-19.76,11,1.87-4.81,4.42-1.71,6.21-3.13,4.76-4.29,8.32-6.52,12.76-10.19-1.77,1.48-1.35,1.68-3.12,3.14,2.4-2,3.82-3.34,6.39-4.54a.3.3,0,0,1,.36.45c-.81,1-2.85,1.73-2.84,2.52,1.86-1.44,2-.94,3.78-2.7.89-.87,2.38-1.84,3.25-2.8l-1.54.89c.37-.35,2.86-2.12,3.13-2.4.48-.53-1.39.51-.92-.05,1.67-2.36-1.46,0-2.57.09-.65.51-1.29,1-1.94,1.49l-.48.35-.52.41-.83.64c-1.11.84,1.7-1.5.6-.73-2.2,1.53-4.37,3-6.52,4.42-4.3,2.89-6.92.35-10.93,4.33l0,0a89.91,89.91,0,0,1-11.31,11.42l-.07,0c-.58.29-1.22.62-1.86,1l-1,.56-.49.29-.24.15-.12.07-.06,0,0,0h0l.23-.15h0a9.66,9.66,0,0,0-2.22,1.49l0,.05c-4.69,7.07-12.54,10.94-21.54,11.63h0A57.72,57.72,0,0,0,376,195.72c-4.63.79-9.2,3.24-13.3,5.9s-10.49,10.61-14.36,13.92-3,2.2-7,7.15c3.72-3.63,2.73-4.47,6.33-4.48-.14.56.79.34.65.9a.31.31,0,0,0,.19.35c1.09.24-.39,1.22.73,1.1-.25.9-.16.66-.78.78.61-.12.68.24,1.29.13a57.72,57.72,0,0,0-3.91,4.76c-2,2.62-1,2.79.32,3.66s.83,1.84,3-.12c1.74-1.64.57-1.63,2.06-2.69a.68.68,0,0,1,1,.87c-2.53,4.83-2.87,4.15-4.73,9.69C348.48,237,348.76,238.41,349.79,237.14Zm51.48-14.85h0a1.92,1.92,0,0,0,.3-.34A1.06,1.06,0,0,0,401.27,222.29Z"></path><path class="f58f688a-d54d-49d9-9c87-cc62a36b0c3d" d="M446.76,212.5c.43-2.62.51.22,1.08.29-.25,2.7-1.39,4.78-.9,6.92,0,0,.77.75.9,0s.11-3.06.27-4,.37-2.79.49-3.83l.44-.15c.53.13.3.9.83,1-.1,2.87.08,6.44-.95,9.89-2.29,4.62-2.83,3.87-2.38,6.93,1.16-.64,2.32-2.94,3.3-6.68a59.68,59.68,0,0,0,1.68-10c0,2.93.24,3,.8,3a47.73,47.73,0,0,1-3.42,12.87,112.53,112.53,0,0,1-6,11.92c1.71-2.43,4.72-8,5.46-8s-4.15,8.06-7.87,12.34a65.55,65.55,0,0,1-12.08,10.72A53.79,53.79,0,0,1,407,264.85a55.67,55.67,0,0,1-12.27.95,56.23,56.23,0,0,1-12.34-1.8,58.19,58.19,0,0,1-22-11.12,61.42,61.42,0,0,1-15.14-18.07,57,57,0,0,1-5.47-41.06,59.21,59.21,0,0,1,2.14-6.9,61.07,61.07,0,0,1,3-6.58,58.33,58.33,0,0,1,45.79-30.57c0,.55-2.86,1.8.17,1.7,6-.14,9,.79,10.4,1.37s1.34,1.25,1.28,1.8c0,.15-.55.13-1.31.11s-1.72-.07-2.61-.12c-1.77-.07-3.18,0-1.77.25-1.06,0-2.2,0-3.38.1s-2.38.15-3.55.37a42.09,42.09,0,0,0-6.27,1.32,13.62,13.62,0,0,0-3,1.12c-.21.2.48.05,2.53-.34,1.4-.11,4.78-.82,8.21-1.16a39.31,39.31,0,0,1,4.9-.12c.73,0,1.4.07,2,.16a7.63,7.63,0,0,1,1.36.34c1.34.5.62.89-.07,1.27s-1.35.77-.07,1.27a49.17,49.17,0,0,1,5.15.56l2.79.54,2.27.59c1.18.6.42.84-.28,1s-1.35.2-.17.62c1.74.61,3.71,0,6.94,1.64a50,50,0,0,1,6.91,4.57,1.74,1.74,0,0,1,.65,1.55.31.31,0,0,1-.08.21c-.09.08-.29,0-.7-.29a15.4,15.4,0,0,1-1.85-1.58c-7.35-5.26-15.42-5.26-19.85-5.65a45.27,45.27,0,0,0-49.56,48.68,46.34,46.34,0,0,0,4,15.19A45,45,0,0,0,433,234.24a45.73,45.73,0,0,0,6.76-13.94,45.1,45.1,0,0,0,1.64-15.38c1.36,1.13.54-.48.64-1.07,0-.33.1-.44.2-.36a1.89,1.89,0,0,1,.42.68c.67,1.42.81,1.8,1.12,5.55-.26-2.47.59-2.5.16-5,.43,0,1.11,1.17,1.62,3.76"></path></svg>